<svg width="100%" height="100%" id="svg" viewBox="0 0 1440 690" xmlns="http://www.w3.org/2000/svg" class="transition duration-300 ease-in-out delay-150"><path d="M 0,700 C 0,700 0,233 0,233 C 32.87517513019114,262.6887308678527 65.75035026038228,292.3774617357054 117,308 C 168.24964973961772,323.6225382642946 237.87377408866206,325.178883925031 291,302 C 344.12622591133794,278.821116074969 380.75455338496926,230.9070025641703 429,232 C 477.24544661503074,233.0929974358297 537.108012371461,283.1931058182876 581,271 C 624.891987628539,258.8068941817124 652.8133971291866,184.3205741626794 700,180 C 747.1866028708134,175.6794258373206 813.6383991117925,241.5245975309947 872,275 C 930.3616008882075,308.4754024690053 980.6330064236433,309.58103571334163 1029,314 C 1077.3669935763567,318.41896428665837 1123.8295751936344,326.1512596156388 1170,299 C 1216.1704248063656,271.8487403843612 1262.0486928018188,209.8139258241032 1307,193 C 1351.9513071981812,176.1860741758968 1395.9756535990905,204.5930370879484 1440,233 C 1440,233 1440,700 1440,700 Z" stroke="none" stroke-width="0" fill="#555555" fill-opacity="0.53" class="transition-all duration-300 ease-in-out delay-150 path-0"></path><path d="M 0,700 C 0,700 0,466 0,466 C 44.04549419757329,493.0158079780063 88.09098839514658,520.0316159560126 140,525 C 191.90901160485342,529.9683840439874 251.68154061698698,512.889344153956 294,490 C 336.318459383013,467.1106558460439 361.18284913690553,438.41100742816354 405,417 C 448.81715086309447,395.58899257183646 511.58706283539084,381.4666261333898 566,397 C 620.4129371646092,412.5333738666102 666.4688995215311,457.72248803827745 712,491 C 757.5311004784689,524.2775119617226 802.5373390784848,545.6434217135003 848,532 C 893.4626609215152,518.3565782864997 939.3817441645299,469.7038251077216 984,457 C 1028.61825583547,444.2961748922784 1071.9356842633956,467.54127785561343 1128,457 C 1184.0643157366044,446.45872214438657 1252.8755187818867,402.13106346982477 1307,398 C 1361.1244812181133,393.86893653017523 1400.5622406090565,429.9344682650876 1440,466 C 1440,466 1440,700 1440,700 Z" stroke="none" stroke-width="0" fill="#555555" fill-opacity="1" class="transition-all duration-300 ease-in-out delay-150 path-1"></path></svg>