<svg width="100%" height="100%" id="svg" viewBox="0 0 1440 690" xmlns="http://www.w3.org/2000/svg" class="transition duration-300 ease-in-out delay-150"><path d="M 0,700 C 0,700 0,233 0,233 C 57.57162494382615,282.28112030452826 115.1432498876523,331.5622406090566 168,302 C 220.8567501123477,272.4377593909434 268.9986253932169,164.0321578683021 313,154 C 357.0013746067831,143.9678421316979 396.8622485394802,232.30912791773505 439,252 C 481.1377514605198,271.69087208226495 525.552380448862,222.73133046075762 571,226 C 616.447619551138,229.26866953924238 662.9282296650717,284.76555023923447 706,298 C 749.0717703349283,311.23444976076553 788.7347008908508,282.2064685823046 844,246 C 899.2652991091492,209.79353141769542 970.1329667715245,166.4085754315472 1025,174 C 1079.8670332284755,181.5914245684528 1118.7334320230511,240.15922969150654 1166,245 C 1213.2665679769489,249.84077030849346 1268.9333051362712,200.9545058024267 1316,190 C 1363.0666948637288,179.0454941975733 1401.5333474318645,206.02274709878665 1440,233 C 1440,233 1440,700 1440,700 Z" stroke="none" stroke-width="0" fill="#000000" fill-opacity="0.53" class="transition-all duration-300 ease-in-out delay-150 path-0" transform="rotate(-180 720 350)"></path><path d="M 0,700 C 0,700 0,466 0,466 C 42.697110682280794,474.67253958603186 85.39422136456159,483.3450791720637 139,502 C 192.6057786354384,520.6549208279363 257.12022522403447,549.2922228977768 302,518 C 346.87977477596553,486.70777710222313 372.1248777393006,395.48602923682887 410,390 C 447.8751222606994,384.51397076317113 498.3802638187633,464.7636601549076 556,503 C 613.6197361812367,541.2363398450924 678.3540669856459,537.4593301435406 724,527 C 769.6459330143541,516.5406698564594 796.2034682386529,499.3990192709298 841,485 C 885.7965317613471,470.6009807290702 948.8320600597426,458.94459277274046 997,457 C 1045.1679399402574,455.05540722725954 1078.468291522377,462.82260963810836 1129,456 C 1179.531708477623,449.17739036189164 1247.2947738507494,427.76496867482615 1302,427 C 1356.7052261492506,426.23503132517385 1398.3526130746254,446.1175156625869 1440,466 C 1440,466 1440,700 1440,700 Z" stroke="none" stroke-width="0" fill="#000000" fill-opacity="1" class="transition-all duration-300 ease-in-out delay-150 path-1" transform="rotate(-180 720 350)"></path></svg>