<svg width="100%" height="100%" id="svg" viewBox="0 0 1440 690" xmlns="http://www.w3.org/2000/svg" class="transition duration-300 ease-in-out delay-150">
  <path d="M 0,700 C 0,700 0,233 0,233 C 32,250 65,300 117,308 C 169,316 238,265 291,302 C 344,339 381,240 429,232 C 477,224 527,300 581,271 C 635,242 652,170 700,180 C 748,190 812,241 872,275 C 932,309 989,298 1029,314 C 1069,330 1122,315 1170,299 C 1218,283 1266,200 1307,193 C 1348,186 1396,237 1440,233 C 1440,233 1440,700 1440,700 Z" stroke="none" stroke-width="0" fill="#555555" fill-opacity="0.53" class="transition-all duration-300 ease-in-out delay-150 path-0"></path>
  <path d="M 0,700 C 0,700 0,466 0,466 C 36,484 80,520 140,525 C 200,530 259,505 294,490 C 329,475 360,435 405,417 C 450,399 510,425 566,397 C 622,369 668,485 712,491 C 756,497 802,463 848,532 C 894,601 933,520 984,457 C 1035,394 1081,468 1128,457 C 1175,446 1233,388 1307,398 C 1381,408 1390,460 1440,466 C 1440,466 1440,700 1440,700 Z" stroke="none" stroke-width="0" fill="#555555" fill-opacity="1" class="transition-all duration-300 ease-in-out delay-150 path-1"></path>
</svg>